<svg width="80" height="60" viewBox="0 0 80 60" fill="none" xmlns="http://www.w3.org/2000/svg">
<path d="M42.8887 51.7712C41.1698 52.704 38.7347 52.704 37.0158 51.7712L7.65145 35.8467C5.93256 34.9139 3.54521 34.9139 1.82632 35.8467C-0.608773 37.1793 -0.608773 39.7446 1.82632 41.0772L34.1033 58.6008C37.541 60.4664 42.3635 60.4664 45.849 58.6008L78.1259 41.0772C80.561 39.7446 80.561 37.1793 78.1259 35.8467L78.0782 35.8134C76.3593 34.8806 73.9719 34.8806 72.2531 35.8134L42.8887 51.7712V51.7712ZM45.8967 41.7102L78.1737 24.1866C80.6088 22.854 80.6088 20.2554 78.1737 18.9228L45.8967 1.39922C42.459 -0.466408 37.6365 -0.466408 34.151 1.39922L1.87407 18.9561C-0.561026 20.2887 -0.561026 22.8873 1.87407 24.2199L34.151 41.7435C37.5888 43.6091 42.459 43.6091 45.8967 41.7102V41.7102Z" fill="black" fill-opacity="0.2"/>
</svg>
